<?xml version="1.0" encoding="utf-8"?>
<!-- Generator: Adobe Illustrator 22.0.1, SVG Export Plug-In . SVG Version: 6.00 Build 0)  -->
<svg version="1.1" id="Layer_1" xmlns="http://www.w3.org/2000/svg" xmlns:xlink="http://www.w3.org/1999/xlink" x="0px" y="0px"
	 viewBox="0 0 1200 1200" style="enable-background:new 0 0 1200 1200;" xml:space="preserve">
<style type="text/css">
	.st0{fill:#727176;}
	.st1{fill:#666565;}
	.st2{fill:#5B5B5F;}
	.st3{fill:#C2C3C9;}
	.st4{fill:#FFFFFF;}
	.st5{fill:#00B0FF;}
	.st6{fill:#080A00;}
	.st7{fill:#211915;}
	.st8{fill:#727176;stroke:#666565;stroke-width:3;stroke-miterlimit:10;}
	.st9{fill:#5B5B5F;stroke:#C2C3C9;stroke-width:3;stroke-miterlimit:10;}
	.st10{fill:none;stroke:#FFFFFF;stroke-miterlimit:10;}
	.st11{fill:#4D4D4D;}
</style>
<g>
	<g>
		<circle class="st0" cx="600" cy="600" r="582"/>
		<path class="st1" d="M600,1187.9c-324.2,0-587.9-263.7-587.9-587.9S275.8,12.1,600,12.1s587.9,263.7,587.9,587.9
			S924.2,1187.9,600,1187.9z M600,23.9C282.3,23.9,23.9,282.3,23.9,600c0,317.7,258.4,576.1,576.1,576.1
			c317.7,0,576.1-258.4,576.1-576.1C1176.1,282.3,917.7,23.9,600,23.9z"/>
	</g>
	<g>
		<circle class="st2" cx="600" cy="600" r="552.6"/>
		<path class="st3" d="M600,1158.5c-307.9,0-558.5-250.5-558.5-558.5S292.1,41.5,600,41.5c307.9,0,558.5,250.5,558.5,558.5
			S907.9,1158.5,600,1158.5z M600,53.3C298.6,53.3,53.3,298.6,53.3,600s245.2,546.7,546.7,546.7c301.4,0,546.7-245.2,546.7-546.7
			S901.4,53.3,600,53.3z"/>
	</g>
	<g>
		<g>
			
				<rect x="908.8" y="263.1" transform="matrix(0.7071 -0.7071 0.7071 0.7071 86.6657 739.3044)" class="st4" width="53.9" height="3.9"/>
		</g>
		<g>
			
				<rect x="264" y="240.3" transform="matrix(0.7071 -0.7071 0.7071 0.7071 -111.0672 266.3619)" class="st4" width="3.9" height="53.9"/>
		</g>
		<g>
			<rect x="598" y="87.6" class="st4" width="3.9" height="86.6"/>
		</g>
		<g>
			<rect x="86.6" y="599.1" class="st4" width="86.6" height="3.9"/>
		</g>
		<g>
			<rect x="86.6" y="606.9" class="st5" width="86.6" height="11.8"/>
		</g>
		<g>
			<rect x="1026.8" y="599.1" class="st4" width="86.6" height="3.9"/>
		</g>
		<g>
			<g>
				<path class="st4" d="M225.4,611.5h-16.9c0-7.5,0-15,0-22.5h16.9v4.1h-12.6v5.2H225v4h-12.2v5.1h12.6V611.5z"/>
			</g>
		</g>
		<g>
			<g>
				<path class="st4" d="M976.6,611.5V589h16.2v4.1h-11.9v6.1h11.3v3.9h-11.3v8.3H976.6z"/>
			</g>
		</g>
		<g>
			<g>
				<path class="st4" d="M577.4,221h3.4V206h-3.5v-3.9h7.7V221h3.1v3.6h-10.7V221z"/>
			</g>
			<g>
				<path class="st4" d="M603.3,200l-10.7,27.3h-4.1l10.7-27.3H603.3z"/>
			</g>
			<g>
				<path class="st4" d="M601.7,208.6c0-4.8,4.5-6.8,8.7-6.8c4.5,0,9.4,1.8,9.4,7.2c0,5.7-4.3,6.8-9,6.8c-1.9,0-4.9,0.5-4.9,2.9v1.9
					h14v4h-18.2c0-2,0-3.9,0-5.9c0-5.2,4.7-6.7,9.1-6.7c1.7,0,4.8-0.3,4.8-2.9c0-2.4-2.2-3.6-5.1-3.6c-2.2,0-4.5,1.1-4.5,3.2H601.7z
					"/>
			</g>
		</g>
	</g>
	<g>
		<path class="st4" d="M350.8,880.3v21.8c-1.8,0.1-4.6,0.2-6.1,0.2c-16,0-24-12.4-24-25c0-12.6,8-25,24-25c1.6,0,4.3,0.1,6.1,0.3
			v2.2c-2.4-0.3-5.2-0.4-6.1-0.4c-14.6,0-21.8,11.5-21.8,22.9s7.3,22.8,21.8,22.8c1,0,2.8,0,4-0.1v-19.8H350.8z"/>
		<path class="st4" d="M375.8,851.4l18.9,50.3l-2,0.7l-5.2-13.7H364l-5.2,13.7l-2-0.7L375.8,851.4z M364.8,886.6h22l-11-29.2
			L364.8,886.6z"/>
		<path class="st4" d="M401.5,893.7c2.1,4.8,6.6,7.1,11.7,7.1c7.1,0,12.6-4.7,12.6-11.5c0-5.9-6.9-9-12.6-11c-6.4-2.2-14-5.7-14-13
			c0-8,6.4-13.6,14.7-13.6c5.9,0,11.3,2.7,13.7,8.3l-2,0.8c-2.1-4.8-6.6-7.1-11.7-7.1c-7.1,0-12.6,4.7-12.6,11.5
			c0,5.9,6.9,9,12.6,11c6.4,2.2,14,5.7,14,13c0,8-6.4,13.6-14.7,13.6c-6,0-11.3-2.7-13.7-8.3L401.5,893.7z"/>
		<path class="st4" d="M457.9,851.9c14,0,25.4,11.4,25.4,25.4s-11.4,25.4-25.4,25.4c-14,0-25.4-11.4-25.4-25.4
			S443.9,851.9,457.9,851.9z M457.9,900.6c12.9,0,23.3-10.4,23.3-23.3s-10.4-23.3-23.3-23.3s-23.3,10.4-23.3,23.3
			S445,900.6,457.9,900.6z"/>
		<path class="st4" d="M491.8,852.6v49.5h-2.1v-49.5H491.8z"/>
		<path class="st4" d="M501.8,852.6v47.4h23.9v2.1h-26v-49.5H501.8z"/>
		<path class="st4" d="M553.4,902.1v-49.5h28v2.1h-25.9v18.7h21.2v2.1h-21.2v26.6H553.4z"/>
		<path class="st4" d="M588.2,902.1v-49.5c1.8-0.1,3.9-0.2,5.4-0.2c16,0,24,8.3,24,16.5c0,6-4.2,11.9-12.4,14.8l13.5,17.7l-1.7,1.3
			l-14-18.4c-2.7,0.7-5.9,1.1-9.3,1.1c-1.1,0-2.1-0.1-3.3-0.1v16.8H588.2z M590.3,854.6v28.6c1.1,0.1,2.3,0.1,3.3,0.1
			c14.6,0,21.8-7.1,21.8-14.3c0-7.2-7.3-14.4-21.8-14.4C592.6,854.5,591.5,854.5,590.3,854.6z"/>
		<path class="st4" d="M642.2,851.4l18.9,50.3l-2,0.7l-5.2-13.7h-23.6l-5.2,13.7l-2-0.7L642.2,851.4z M631.1,886.6h22l-11-29.2
			L631.1,886.6z"/>
		<path class="st4" d="M667.5,902.1v-51.2l18.2,34.1l18.2-34.1v51.2h-2.1v-42.8l-16.1,30.3l-16.1-30.3v42.8H667.5z"/>
		<path class="st4" d="M711.8,902.1v-49.5h28v2.1h-25.9v18.7h21.2v2.1h-21.2v24.5h25.9v2.1H711.8z"/>
		<path class="st4" d="M764.7,852.3l4.2,14.4l4.2-14.4l2,0.6l-5.2,17.5l7.8,26.4l13-44.5l2,0.6l-15,51.3l-8.8-30.2l-8.8,30.2
			l-15-51.3l2-0.6l13,44.5l7.7-26.4l-5.1-17.5L764.7,852.3z"/>
		<path class="st4" d="M821.2,851.9c14,0,25.4,11.4,25.4,25.4s-11.4,25.4-25.4,25.4c-14,0-25.4-11.4-25.4-25.4
			S807.2,851.9,821.2,851.9z M821.2,900.6c12.9,0,23.3-10.4,23.3-23.3s-10.4-23.3-23.3-23.3c-12.9,0-23.3,10.4-23.3,23.3
			S808.3,900.6,821.2,900.6z"/>
		<path class="st4" d="M853,902.1v-49.5c1.8-0.1,3.9-0.2,5.4-0.2c16,0,24,8.3,24,16.5c0,6-4.2,11.9-12.4,14.8l13.5,17.7l-1.7,1.3
			l-14-18.4c-2.7,0.7-5.9,1.1-9.3,1.1c-1.1,0-2.1-0.1-3.3-0.1v16.8H853z M855.1,854.6v28.6c1.1,0.1,2.3,0.1,3.3,0.1
			c14.6,0,21.8-7.1,21.8-14.3c0-7.2-7.3-14.4-21.8-14.4C857.4,854.5,856.3,854.5,855.1,854.6z"/>
		<path class="st4" d="M920.2,902.8l-24.5-25.2l-4,3.7v20.7h-2.1v-49.5h2.1v25.9l28.6-26.6l1.4,1.6l-24.5,22.8l24.6,25.2
			L920.2,902.8z"/>
	</g>
</g>
<g>
	<path class="st11" d="M615.3,623.9L600,363.4l-15.3,260.5c-16,6.2-27.4,21.6-27.4,39.8c0,23.6,19.1,42.7,42.7,42.7
		c23.6,0,42.7-19.1,42.7-42.7C642.7,645.5,631.3,630,615.3,623.9z M600,693.8c-16.7,0-30.2-13.5-30.2-30.2
		c0-16.7,13.5-30.2,30.2-30.2c16.7,0,30.2,13.5,30.2,30.2C630.2,680.3,616.7,693.8,600,693.8z"/>
</g>
</svg>
